<svg xmlns="http://www.w3.org/2000/svg" width="760" height="460" viewBox="0 0 760 460" role="img" aria-label="高频汉语学习封面">
  <defs>
    <linearGradient id="bg" x1="0" x2="1" y1="0" y2="1">
      <stop offset="0" stop-color="#e9fbf6"/>
      <stop offset="0.54" stop-color="#fff3db"/>
      <stop offset="1" stop-color="#f3e8ff"/>
    </linearGradient>
    <filter id="shadow" width="140%" height="140%" x="-20%" y="-20%">
      <feDropShadow dx="0" dy="20" stdDeviation="18" flood-color="#45645b" flood-opacity=".16"/>
    </filter>
  </defs>
  <rect width="760" height="460" rx="28" fill="url(#bg)"/>
  <circle cx="122" cy="92" r="64" fill="#fff" opacity=".52"/>
  <circle cx="632" cy="350" r="92" fill="#fff" opacity=".45"/>
  <path d="M114 309c41-81 108-132 206-138 66-4 108-43 161-76 55-34 123 8 120 73-4 87 24 139 48 200 12 31-10 65-43 65H149c-33 0-50-34-35-64Z" fill="#fff" opacity=".58"/>
  <g filter="url(#shadow)">
    <rect x="103" y="159" width="208" height="156" rx="28" fill="#ffffff"/>
    <path d="M145 215h126M145 258h88" stroke="#23a27d" stroke-width="16" stroke-linecap="round"/>
    <path d="M218 314l-34 42 8-46" fill="#fff"/>
    <rect x="449" y="111" width="208" height="156" rx="28" fill="#ffffff"/>
    <path d="M494 168h114M494 211h78" stroke="#b72ff1" stroke-width="16" stroke-linecap="round"/>
    <path d="M548 266l34 42-8-46" fill="#fff"/>
    <rect x="288" y="239" width="184" height="126" rx="24" fill="#262033"/>
    <text x="380" y="318" text-anchor="middle" font-family="Arial, 'Noto Sans SC', sans-serif" font-size="58" font-weight="900" fill="#fff">说</text>
    <circle cx="252" cy="134" r="34" fill="#ffc857"/>
    <path d="M230 145c15 16 29 16 44 0" stroke="#262033" stroke-width="7" stroke-linecap="round"/>
    <circle cx="515" cy="333" r="36" fill="#ffc857"/>
    <path d="M491 345c17 17 31 17 48 0" stroke="#262033" stroke-width="7" stroke-linecap="round"/>
  </g>
  <g fill="#1aa36f" opacity=".22">
    <circle cx="78" cy="365" r="8"/>
    <circle cx="101" cy="386" r="5"/>
    <circle cx="679" cy="96" r="9"/>
    <circle cx="653" cy="77" r="6"/>
  </g>
</svg>
