<svg xmlns="http://www.w3.org/2000/svg" width="760" height="460" viewBox="0 0 760 460" role="img" aria-label="HSK教程练习封面">
  <defs>
    <linearGradient id="bg" x1="0" x2="1" y1="0" y2="1">
      <stop offset="0" stop-color="#f4e9ff"/>
      <stop offset="0.56" stop-color="#eef7ff"/>
      <stop offset="1" stop-color="#fff7ec"/>
    </linearGradient>
    <linearGradient id="book" x1="0" x2="1" y1="0" y2="1">
      <stop offset="0" stop-color="#ffffff"/>
      <stop offset="1" stop-color="#f5f0ff"/>
    </linearGradient>
    <filter id="shadow" width="140%" height="140%" x="-20%" y="-20%">
      <feDropShadow dx="0" dy="18" stdDeviation="18" flood-color="#6d3a9c" flood-opacity=".18"/>
    </filter>
  </defs>
  <rect width="760" height="460" rx="28" fill="url(#bg)"/>
  <circle cx="618" cy="88" r="58" fill="#ffffff" opacity=".56"/>
  <circle cx="90" cy="376" r="94" fill="#ffffff" opacity=".5"/>
  <path d="M114 123c70-55 181-72 279-42 81 24 135 27 211 0 33-12 58 13 49 46-23 82-18 150 20 218 20 36-7 78-48 73-112-14-191 8-283 26-86 16-176-14-227-79-56-70-65-191-1-242Z" fill="#fff" opacity=".56"/>
  <g filter="url(#shadow)">
    <path d="M226 105h232c34 0 62 28 62 62v204H288c-34 0-62-28-62-62V105Z" fill="url(#book)"/>
    <path d="M288 105h232v266H288c-34 0-62-28-62-62V167c0-34 28-62 62-62Z" fill="#fff"/>
    <path d="M288 105v266" stroke="#e6dcf4" stroke-width="4"/>
    <path d="M326 164h140M326 205h108M326 246h142M326 287h88" stroke="#d8c6ec" stroke-width="14" stroke-linecap="round"/>
    <rect x="150" y="146" width="150" height="192" rx="20" fill="#b72ff1"/>
    <rect x="171" y="171" width="108" height="36" rx="10" fill="#fff" opacity=".9"/>
    <text x="225" y="269" text-anchor="middle" font-family="Arial, 'Noto Sans SC', sans-serif" font-size="70" font-weight="900" fill="#fff">汉</text>
    <path d="M548 162h56c19 0 34 15 34 34v96c0 19-15 34-34 34h-56c-19 0-34-15-34-34v-96c0-19 15-34 34-34Z" fill="#262033"/>
    <path d="M546 305h94" stroke="#262033" stroke-width="18" stroke-linecap="round"/>
    <circle cx="576" cy="216" r="22" fill="#ffc857"/>
    <path d="M556 264c19-18 44-18 63 0" stroke="#ffc857" stroke-width="12" stroke-linecap="round"/>
  </g>
  <g fill="#8d1ed0" opacity=".26">
    <circle cx="145" cy="82" r="10"/>
    <circle cx="170" cy="70" r="6"/>
    <circle cx="644" cy="356" r="9"/>
    <circle cx="614" cy="382" r="6"/>
  </g>
</svg>
