<svg width="640" height="400" viewBox="0 0 640 400" fill="none" xmlns="http://www.w3.org/2000/svg">
  <rect width="640" height="400" rx="36" fill="#E8F6F0"/>
  <circle cx="505" cy="96" r="66" fill="#C8EADD"/>
  <rect x="76" y="92" width="312" height="42" rx="21" fill="#1F7A63"/>
  <rect x="76" y="162" width="460" height="24" rx="12" fill="#88B9A9"/>
  <rect x="76" y="212" width="398" height="24" rx="12" fill="#A8CDC0"/>
  <rect x="76" y="274" width="198" height="54" rx="27" fill="#172033"/>
  <path d="M503 184C525 184 543 202 543 224C543 246 525 264 503 264C481 264 463 246 463 224C463 202 481 184 503 184Z" fill="#1F7A63"/>
  <path d="M496 207L522 224L496 241V207Z" fill="white"/>
</svg>
